<svg width="152" height="152" viewBox="0 0 152 152" fill="none" xmlns="http://www.w3.org/2000/svg">
  <circle cx="76" cy="76" r="76" fill="#E8F5E9" opacity="0.2"/>
  <path d="M50.6667 59.1111C50.6667 54.4007 54.4007 50.6667 59.1111 50.6667H92.8889C97.5993 50.6667 101.333 54.4007 101.333 59.1111V92.8889C101.333 97.5993 97.5993 101.333 92.8889 101.333H59.1111C54.4007 101.333 50.6667 97.5993 50.6667 92.8889V59.1111Z" fill="#E8F5E9"/>
  <path d="M76 50.6667C65.5179 50.6667 57 59.1846 57 69.6667C57 74.7011 59.1911 79.2648 62.7269 82.5154L62.6852 82.5571L76 95.8719L89.3148 82.5571L89.2731 82.5154C92.8089 79.2648 95 74.7011 95 69.6667C95 59.1846 86.4821 50.6667 76 50.6667ZM76 76C72.4637 76 69.6667 73.203 69.6667 69.6667C69.6667 66.1304 72.4637 63.3333 76 63.3333C79.5363 63.3333 82.3333 66.1304 82.3333 69.6667C82.3333 73.203 79.5363 76 76 76Z" fill="#1E3A8A"/>
</svg>