<svg width="128" height="128" viewBox="0 0 128 128" fill="none" xmlns="http://www.w3.org/2000/svg">
  <circle cx="64" cy="64" r="64" fill="#E8F5E9" opacity="0.2"/>
  <path d="M42.6667 49.7778C42.6667 45.8504 45.8504 42.6667 49.7778 42.6667H78.2222C82.1496 42.6667 85.3333 45.8504 85.3333 49.7778V78.2222C85.3333 82.1496 82.1496 85.3333 78.2222 85.3333H49.7778C45.8504 85.3333 42.6667 82.1496 42.6667 78.2222V49.7778Z" fill="#E8F5E9"/>
  <path d="M64 42.6667C55.1634 42.6667 48 49.83 48 58.6667C48 62.9072 49.825 66.7492 52.7756 69.4868L52.7407 69.5216L64 80.7808L75.2593 69.5216L75.2244 69.4868C78.175 66.7492 80 62.9072 80 58.6667C80 49.83 72.8366 42.6667 64 42.6667ZM64 64C61.0545 64 58.6667 61.6122 58.6667 58.6667C58.6667 55.7212 61.0545 53.3333 64 53.3333C66.9455 53.3333 69.3333 55.7212 69.3333 58.6667C69.3333 61.6122 66.9455 64 64 64Z" fill="#1E3A8A"/>
</svg>