<svg width="96" height="96" viewBox="0 0 96 96" fill="none" xmlns="http://www.w3.org/2000/svg">
  <circle cx="48" cy="48" r="48" fill="#E8F5E9" opacity="0.2"/>
  <path d="M32 37.3333C32 34.3878 34.3878 32 37.3333 32H58.6667C61.6122 32 64 34.3878 64 37.3333V58.6667C64 61.6122 61.6122 64 58.6667 64H37.3333C34.3878 64 32 61.6122 32 58.6667V37.3333Z" fill="#E8F5E9"/>
  <path d="M48 32C41.3725 32 36 37.3725 36 44C36 47.1804 37.3689 50.0619 39.5817 52.1151L39.5556 52.1412L48 60.5856L56.4444 52.1412L56.4183 52.1151C58.6311 50.0619 60 47.1804 60 44C60 37.3725 54.6275 32 48 32ZM48 48C45.7909 48 44 46.2091 44 44C44 41.7909 45.7909 40 48 40C50.2091 40 52 41.7909 52 44C52 46.2091 50.2091 48 48 48Z" fill="#1E3A8A"/>
</svg>