<svg width="72" height="72" viewBox="0 0 72 72" fill="none" xmlns="http://www.w3.org/2000/svg">
  <circle cx="36" cy="36" r="36" fill="#E8F5E9" opacity="0.2"/>
  <path d="M24 28C24 25.7909 25.7909 24 28 24H44C46.2091 24 48 25.7909 48 28V44C48 46.2091 46.2091 48 44 48H28C25.7909 48 24 46.2091 24 44V28Z" fill="#E8F5E9"/>
  <path d="M36 24C31.0294 24 27 28.0294 27 33C27 35.3853 28.0267 37.5464 29.6863 39.0863L29.6667 39.1059L36 45.4392L42.3333 39.1059L42.3137 39.0863C43.9733 37.5464 45 35.3853 45 33C45 28.0294 40.9706 24 36 24ZM36 36C34.3431 36 33 34.6569 33 33C33 31.3431 34.3431 30 36 30C37.6569 30 39 31.3431 39 33C39 34.6569 37.6569 36 36 36Z" fill="#1E3A8A"/>
</svg>