<svg width="192" height="192" viewBox="0 0 192 192" fill="none" xmlns="http://www.w3.org/2000/svg">
  <circle cx="96" cy="96" r="96" fill="#E8F5E9" opacity="0.2"/>
  <path d="M64 74.6667C64 68.6726 68.6726 64 74.6667 64H117.333C123.327 64 128 68.6726 128 74.6667V117.333C128 123.327 123.327 128 117.333 128H74.6667C68.6726 128 64 123.327 64 117.333V74.6667Z" fill="#E8F5E9"/>
  <path d="M96 64C82.7452 64 72 74.7452 72 88C72 94.2941 74.5822 100.039 78.7823 104.019L78.7333 104.068L96 121.335L113.267 104.068L113.218 104.019C117.418 100.039 120 94.2941 120 88C120 74.7452 109.255 64 96 64ZM96 96C91.5817 96 88 92.4183 88 88C88 83.5817 91.5817 80 96 80C100.418 80 104 83.5817 104 88C104 92.4183 100.418 96 96 96Z" fill="#1E3A8A"/>
</svg>