<svg width="512" height="512" viewBox="0 0 512 512" fill="none" xmlns="http://www.w3.org/2000/svg">
  <circle cx="256" cy="256" r="256" fill="#E8F5E9" opacity="0.2"/>
  <path d="M170.667 199.111C170.667 183.127 183.127 170.667 199.111 170.667H312.889C328.873 170.667 341.333 183.127 341.333 199.111V312.889C341.333 328.873 328.873 341.333 312.889 341.333H199.111C183.127 341.333 170.667 328.873 170.667 312.889V199.111Z" fill="#E8F5E9"/>
  <path d="M256 170.667C220.654 170.667 192 199.321 192 234.667C192 251.451 198.886 266.771 210.086 277.384L209.956 277.515L256 323.559L302.044 277.515L301.914 277.384C313.114 266.771 320 251.451 320 234.667C320 199.321 291.346 170.667 256 170.667ZM256 256C244.218 256 234.667 246.449 234.667 234.667C234.667 222.885 244.218 213.333 256 213.333C267.782 213.333 277.333 222.885 277.333 234.667C277.333 246.449 267.782 256 256 256Z" fill="#1E3A8A"/>
</svg>