<svg width="144" height="144" viewBox="0 0 144 144" fill="none" xmlns="http://www.w3.org/2000/svg">
  <circle cx="72" cy="72" r="72" fill="#E8F5E9" opacity="0.2"/>
  <path d="M48 56C48 51.5817 51.5817 48 56 48H88C92.4183 48 96 51.5817 96 56V88C96 92.4183 92.4183 96 88 96H56C51.5817 96 48 92.4183 48 88V56Z" fill="#E8F5E9"/>
  <path d="M72 48C62.0589 48 54 56.0589 54 66C54 70.7706 56.0533 75.0928 59.3725 78.1725L59.3333 78.2118L72 90.8784L84.6667 78.2118L84.6275 78.1725C87.9467 75.0928 90 70.7706 90 66C90 56.0589 81.9411 48 72 48ZM72 72C68.6863 72 66 69.3137 66 66C66 62.6863 68.6863 60 72 60C75.3137 60 78 62.6863 78 66C78 69.3137 75.3137 72 72 72Z" fill="#1E3A8A"/>
</svg>