<svg width="384" height="384" viewBox="0 0 384 384" fill="none" xmlns="http://www.w3.org/2000/svg">
  <circle cx="192" cy="192" r="192" fill="#E8F5E9" opacity="0.2"/>
  <path d="M128 149.333C128 137.345 137.345 128 149.333 128H234.667C246.655 128 256 137.345 256 149.333V234.667C256 246.655 246.655 256 234.667 256H149.333C137.345 256 128 246.655 128 234.667V149.333Z" fill="#E8F5E9"/>
  <path d="M192 128C165.49 128 144 149.49 144 176C144 188.588 149.164 200.078 157.565 208.038L157.467 208.136L192 242.669L226.533 208.136L226.435 208.038C234.836 200.078 240 188.588 240 176C240 149.49 218.51 128 192 128ZM192 192C183.163 192 176 184.837 176 176C176 167.163 183.163 160 192 160C200.837 160 208 167.163 208 176C208 184.837 200.837 192 192 192Z" fill="#1E3A8A"/>
</svg>